HIERARCHY
ROOT hip
{
	OFFSET 0.000000 0.000000 0.000000 
	CHANNELS 6 Xposition Yposition Zposition Xrotation Zrotation Yrotation
	JOINT abdomen
	{
		OFFSET 0.000000 3.402643 0.000000 
		CHANNELS 3 Xrotation Zrotation Yrotation
		JOINT chest
		{
			OFFSET 0.000000 8.438565 -0.680529 
			CHANNELS 3 Xrotation Zrotation Yrotation
			JOINT neck
			{
				OFFSET 0.000000 10.207942 -0.272212 
				CHANNELS 3 Xrotation Zrotation Yrotation
				JOINT head
				{
					OFFSET 0.000000 3.130431 0.000000 
					CHANNELS 3 Xrotation Zrotation Yrotation
					End Site
					{
						OFFSET 0.000000 3.130435 0.000000 
					}
				}
			}
			JOINT lCollar
			{
				OFFSET 3.470700 6.669187 -0.816635 
				CHANNELS 3 Yrotation Zrotation Xrotation
				JOINT lShldr
				{
					OFFSET 3.198488 0.000000 0.000000 
					CHANNELS 3 Zrotation Yrotation Xrotation
					JOINT lForeArm
					{
						OFFSET 10.139888 0.000000 0.000000 
						CHANNELS 3 Yrotation Zrotation Xrotation
						JOINT lHand
						{
							OFFSET 8.370511 0.000000 0.000000 
							CHANNELS 3 Zrotation Yrotation Xrotation
							End Site
							{
								OFFSET 4.083176 0.000000 0.000000 
							}
						}
					}
				}
			}
			JOINT rCollar
			{
				OFFSET -3.470700 6.669187 -0.816635 
				CHANNELS 3 Yrotation Zrotation Xrotation
				JOINT rShldr
				{
					OFFSET -3.198488 0.000000 0.000000 
					CHANNELS 3 Zrotation Yrotation Xrotation
					JOINT rForeArm
					{
						OFFSET -10.139888 0.000000 0.000000 
						CHANNELS 3 Yrotation Zrotation Xrotation
						JOINT rHand
						{
							OFFSET -8.370511 0.000000 0.000000 
							CHANNELS 3 Zrotation Yrotation Xrotation
							End Site
							{
								OFFSET -4.083176 0.000000 0.000000 
							}
						}
					}
				}
			}
		}
	}
	JOINT lThigh
	{
		OFFSET 5.308129 -1.633274 1.361059 
		CHANNELS 3 Xrotation Zrotation Yrotation
		JOINT lShin
		{
			OFFSET -2.041588 -20.007561 0.000000 
			CHANNELS 3 Xrotation Zrotation Yrotation
			JOINT lFoot
			{
				OFFSET 0.000000 -19.190928 -1.224953 
				CHANNELS 3 Xrotation Yrotation Zrotation
				End Site
				{
					OFFSET 0.000000 -2.449906 4.627600 
				}
			}
		}
	}
	JOINT rThigh
	{
		OFFSET -5.308129 -1.633274 1.361059 
		CHANNELS 3 Xrotation Zrotation Yrotation
		JOINT rShin
		{
			OFFSET 2.041588 -20.007561 0.000000 
			CHANNELS 3 Xrotation Zrotation Yrotation
			JOINT rFoot
			{
				OFFSET 0.000000 -19.190928 -1.224953 
				CHANNELS 3 Xrotation Yrotation Zrotation
				End Site
				{
					OFFSET 0.000000 -2.449906 4.627600 
				}
			}
		}
	}
}
MOTION
Frames: 18
Frame Time: 0.033333
-16.503719 50.346397 93.277222 35.917969 13.339845 -43.046875 19.424036 0.807209 1.002987 -15.136719 4.511718 13.164831 37.626953 7.968750 2.841796 -83.447266 -0.693359 -24.414179 1.992188 -2.001953 0.000341 -35.810547 -24.541016 -39.379055 -94.499992 -0.272058 -2.700377 21.636263 47.498512 -14.532417 -2.001953 1.992188 0.000000 64.824219 1.542969 -35.400131 127.710739 -1.985078 -2.496067 7.774176 56.446583 -112.446358 -39.316494 37.128155 45.399902 36.866535 -1.437613 -3.147667 -15.705181 5.667882 -2.306606 -43.788361 17.089735 3.408440 27.086849 1.844331 2.660677 -12.575047 -10.366823 -4.957040 
-17.128204 50.575722 94.304497 32.705078 11.552733 -42.910156 19.424036 0.807209 1.002987 -14.433594 4.511718 12.178503 37.626953 7.968750 2.841796 -77.724609 2.246094 -33.349224 1.992188 -2.001953 0.000341 -34.814449 -27.041016 -38.793499 -95.552650 -0.279267 -2.641448 20.027931 48.204269 -18.698526 -2.001953 1.992188 0.000000 64.726563 1.464844 -31.582026 125.050369 -2.026632 -2.663609 7.595215 52.677898 -110.872505 -33.116756 34.688900 46.842781 33.389915 -1.691023 -2.736550 -16.223013 4.962061 -3.402610 -38.351257 15.786636 3.828832 24.620079 2.029646 2.490629 -12.068406 -9.627237 -5.088941 
-17.681387 50.797142 95.600845 29.804688 9.765625 -42.762016 18.503735 3.127733 -0.797503 -13.720702 3.828125 10.557293 37.626953 7.968750 2.841796 -70.205078 3.837891 -39.384109 1.992188 -2.001953 0.000341 -33.984379 -27.333982 -37.792969 -96.449432 0.054574 -2.607178 17.200056 49.158123 -23.168432 -2.001953 1.992188 0.000000 63.232422 1.728516 -25.976267 122.749290 -1.878610 -2.471882 7.813745 50.069096 -109.289124 -27.266090 31.795547 47.865025 29.725950 -1.729369 -2.724181 -16.276379 4.870133 -4.557168 -32.492893 14.127156 4.469896 22.519878 2.123633 2.269904 -11.537403 -8.509687 -5.459449 
-18.159618 51.018574 96.837547 26.826172 8.164063 -42.479080 17.597572 4.945131 -2.281087 -13.183595 3.476562 9.140626 37.626953 7.968750 2.841796 -61.874996 4.150391 -44.618431 1.992188 -2.001953 0.000341 -33.652344 -28.486328 -36.181637 -96.972740 -0.147771 -2.764443 13.165323 50.368309 -27.550043 -2.001953 1.992188 0.000000 61.376953 2.197266 -20.995720 120.614189 -1.718254 -2.562576 8.322514 48.337387 -107.106133 -21.194077 28.829498 48.913815 26.005945 -1.875129 -2.411853 -16.491829 4.452363 -5.623300 -26.997761 12.555991 4.650393 20.052414 2.137544 2.245675 -10.896279 -7.994587 -5.650929 
-18.623396 51.192547 97.904198 23.691408 6.416016 -42.176643 16.714474 5.695121 -2.833236 -13.359375 3.984375 7.978517 37.626953 7.968750 2.841796 -54.794922 4.501953 -48.212509 1.992188 -2.001953 0.000341 -34.091793 -31.210936 -33.159351 -97.148186 -0.147347 -2.754667 7.102028 51.997913 -32.682873 -2.001953 1.992188 0.000000 59.394531 2.138672 -17.392214 118.662613 -1.560452 -2.594500 9.561442 47.010551 -105.048286 -15.587289 26.188097 49.276634 21.760754 -1.815746 -2.191938 -15.433075 4.050822 -7.064787 -21.461578 11.052802 5.486497 17.429295 2.300960 1.843411 -10.228825 -7.805846 -5.238929 
-19.081835 51.319069 98.860306 20.986328 4.746094 -41.766769 15.639688 5.994931 -3.186193 -13.906250 4.697266 6.778143 37.626953 7.968750 2.841796 -49.433594 4.902344 -49.188618 1.992188 -2.001953 0.000341 -34.453125 -33.808594 -30.122623 -97.313828 -0.312781 -2.737676 1.206737 52.691029 -37.317844 -2.001953 1.992188 0.000000 57.968750 1.601563 -13.906039 116.551178 -1.592272 -2.537539 10.167275 45.921978 -103.509003 -10.297589 23.917194 49.011223 18.105169 -2.059003 -1.888277 -14.198043 3.338119 -8.619366 -15.916972 10.029259 5.776295 14.435005 2.368986 1.548186 -9.454997 -7.495888 -4.903806 
-19.569906 51.453510 99.591423 18.125002 3.164063 -41.493603 14.926420 6.298929 -3.517761 -13.906251 5.410157 5.966797 37.626953 7.968750 2.841796 -44.990234 5.214844 -48.905365 1.992188 -2.001953 0.000341 -34.228512 -36.064449 -27.300671 -97.674187 0.029965 -2.723333 -3.273552 52.539150 -41.399929 -2.001953 1.992188 0.000000 56.181641 1.777344 -11.142276 114.602928 -1.449733 -2.667839 11.056192 44.791695 -101.104279 -5.559109 21.549747 48.772430 14.580577 -1.726312 -1.515916 -13.308944 2.862527 -10.548712 -10.750091 9.002988 6.760407 11.648850 2.458338 1.107954 -8.253850 -7.839939 -4.619365 
-20.026514 51.580040 100.277496 15.634766 1.855469 -40.976250 14.380648 6.484353 -4.045064 -13.544923 5.937500 5.341797 37.626953 7.968750 2.841796 -41.210938 5.546875 -47.889679 1.992188 -2.001953 0.000341 -33.417965 -38.261715 -25.181826 -97.849625 0.030390 -2.713582 -7.081212 51.628262 -45.060093 -2.001953 1.992188 0.000000 55.214848 2.558594 -8.456595 112.465591 -1.116743 -2.682668 12.327471 44.135853 -99.045174 -0.693795 19.736589 48.527664 11.442158 -1.868251 -1.242499 -12.782578 2.412941 -11.775511 -5.661523 7.876805 6.957731 8.650220 2.468404 0.988044 -7.466440 -8.046843 -4.110757 
-20.465637 51.667027 100.947647 13.164063 0.507813 -40.663929 13.652809 6.834879 -4.546157 -13.183594 6.269531 4.903411 37.626953 7.968750 2.841796 -37.832031 5.703125 -46.406254 1.992188 -2.001953 0.000341 -32.705078 -40.156250 -22.965282 -98.219711 0.012150 -2.683479 -10.699762 50.834991 -48.322239 -2.001953 1.992188 0.000000 54.130859 3.710938 -5.800781 110.896179 -1.317809 -2.779331 12.187475 43.121445 -98.229401 3.412824 17.760197 48.657978 8.087373 -1.909889 -0.935249 -11.094477 1.899694 -12.233934 -1.074113 6.935216 7.629624 5.513007 2.516509 0.783090 -6.045781 -8.003016 -3.565397 
-20.876331 51.714470 101.578957 11.054688 -0.693359 -40.263786 12.928439 7.022695 -5.084162 -12.656251 6.806641 4.335938 37.626953 7.968750 2.841796 -34.765625 5.859375 -44.873047 1.992188 -2.001953 0.000341 -32.382813 -41.953129 -20.680357 -98.561493 -0.173221 -2.675386 -14.273508 50.159206 -50.860104 -2.001953 1.992188 0.000000 53.369141 4.960937 -3.631968 109.474045 -1.020879 -2.863936 12.901729 42.733757 -97.278465 7.332537 16.210859 49.553909 5.303123 -1.947444 -0.705933 -9.650193 1.027827 -12.310498 2.986756 6.256999 8.084937 2.962320 2.582610 0.474635 -4.735579 -8.370770 -3.454027 
-21.257751 51.706562 102.164078 9.306641 -1.738281 -39.883110 12.358672 7.212973 -5.630454 -12.304688 7.333984 3.916016 37.626953 7.968750 2.841796 -31.777342 5.830078 -44.129868 1.992188 -2.001953 0.000341 -33.164063 -43.398434 -17.282101 -98.912384 -0.172372 -2.655884 -17.239731 49.728985 -52.811989 -2.001953 1.992188 0.000000 52.705078 6.835938 -1.395320 108.064598 -1.229547 -2.785237 13.122374 42.585091 -96.675690 10.831106 14.783164 50.123154 2.679125 -1.965590 -0.464031 -8.956872 0.037947 -12.621151 7.096567 5.476804 8.500147 -0.205847 2.760916 0.200982 -3.573467 -8.605246 -3.462851 
-21.605644 51.659115 102.692963 7.900391 -2.626953 -39.795368 11.631104 7.379115 -6.163103 -11.757813 7.832032 3.349610 37.626953 7.968750 2.841796 -29.179688 6.464844 -43.623047 1.992188 -2.001953 0.000341 -33.955078 -45.224609 -14.069429 -99.087486 -0.171522 -2.636384 -20.613277 49.283096 -54.787991 -2.001953 1.992188 0.000000 52.167969 8.398438 0.400391 106.815521 -0.897012 -2.790341 13.176181 42.750576 -96.599091 13.498654 14.004135 50.915741 0.950387 -1.970291 -0.231948 -7.996993 -0.826703 -12.557823 10.588254 5.173646 8.851852 -2.979153 2.785412 -0.021280 -2.552909 -8.545629 -3.023803 
-21.875557 51.572128 103.042427 6.855469 -3.330078 -39.804688 11.074528 7.738572 -6.663156 -11.210938 8.369141 2.968750 37.626953 7.968750 2.841796 -27.470703 7.236328 -43.183598 1.992188 -2.001953 0.000341 -35.361332 -46.406250 -10.371094 -99.438713 -0.171097 -2.626633 -23.441212 48.981960 -56.478722 -2.001953 1.992188 0.000000 51.669922 9.814453 2.597657 105.762383 -1.080265 -2.846971 13.226034 42.701248 -96.402184 15.887993 13.437758 51.510796 -0.276363 -1.967337 -0.154383 -7.362632 -1.119846 -12.957069 13.634394 4.891180 9.236352 -5.260123 2.579027 -0.072134 -2.126726 -8.415889 -2.903174 
-22.267788 51.461422 103.519333 6.142578 -4.052734 -40.049522 10.515849 7.860587 -7.037203 -10.673828 8.886718 2.433150 37.626953 7.968750 2.841796 -26.386721 7.236329 -42.792969 1.992188 -2.001953 0.000341 -37.138668 -47.861328 -6.559974 -99.782204 -0.370883 -2.950119 -25.965738 48.729271 -57.669220 -2.001953 1.992188 0.000000 50.937500 10.917969 4.083880 105.052917 -0.644681 -3.199211 12.669800 42.823906 -96.765144 17.345993 13.497302 51.512932 -0.062987 -1.896719 -0.147990 -7.288234 -0.924389 -12.822724 16.046490 4.745200 9.550332 -6.895259 2.943027 -0.239396 -1.743547 -7.778692 -3.341937 
-22.575108 51.342789 103.800644 5.820313 -4.736328 -40.450024 9.774230 8.043458 -7.597025 -10.302735 9.404296 2.031250 37.626953 7.968750 2.841796 -25.537109 6.933594 -42.235146 1.992188 -2.001953 0.000341 -38.837894 -49.267578 -2.548828 -100.154984 0.156374 -2.738621 -29.219604 48.009315 -59.806934 -2.001953 1.992188 0.000000 50.410156 11.806640 5.802778 104.353127 -0.574648 -3.010679 12.253664 42.837605 -97.621689 18.851856 13.956265 52.188969 -0.228036 -2.454216 -0.147294 -7.018073 -0.739205 -13.728606 17.828709 4.755696 9.798124 -8.316369 3.018321 -0.503288 -1.437718 -7.252731 -4.074883 
-22.851944 51.247898 103.981033 5.634766 -5.253906 -40.996094 9.202086 8.055745 -8.162776 -9.794923 9.736327 1.630859 37.626953 7.968750 2.841796 -24.882811 6.523438 -41.961784 1.992188 -2.001953 0.000341 -40.791016 -50.312500 1.533202 -100.506554 -0.019241 -2.730953 -32.155132 47.669765 -60.981133 -2.001953 1.992188 0.000000 49.892578 12.695313 7.687695 103.815285 -0.587777 -2.708510 11.504431 42.981098 -98.410759 19.710236 14.122162 52.162853 0.151931 -2.486212 -0.022888 -7.513083 -0.540819 -13.836196 19.052364 4.951173 9.744974 -8.864048 2.970775 -0.446249 -1.303035 -7.061865 -3.989151 
-23.108490 51.184635 104.065704 5.625000 -5.615234 -41.572266 8.624227 8.233063 -8.703841 -9.248047 10.234375 1.308594 37.626953 7.968750 2.841796 -24.042967 6.220703 -41.756756 1.992188 -2.001953 0.000341 -43.115231 -51.220703 5.295124 -100.857445 -0.018392 -2.711453 -35.306389 46.980259 -62.584789 -2.001953 1.992188 0.000000 49.365238 13.574219 9.357761 103.270088 -0.595412 -2.757688 11.199548 42.973957 -98.931786 20.399364 14.443963 52.563091 -0.043285 -2.455121 -0.207124 -7.656730 -0.126070 -14.414974 19.413961 5.273727 10.031237 -8.308224 2.980736 -0.518827 -1.479212 -6.603144 -4.188117 
-23.335033 51.137188 104.071922 5.830078 -5.800781 -41.963875 7.905206 8.357146 -9.087500 -8.876953 10.761718 0.966797 37.626953 7.968750 2.841796 -23.525391 5.996094 -41.621101 1.992188 -2.001953 0.000341 -45.175781 -51.933598 9.306642 -101.208328 -0.027300 -2.691525 -37.621204 46.605186 -63.141792 -2.001953 1.992188 0.000000 49.062504 14.296876 10.441866 103.092102 -0.264132 -2.958153 11.270807 42.983116 -98.952171 20.901022 14.991519 52.523495 0.318145 -2.413735 -0.219467 -8.141888 0.491437 -14.821044 19.448853 5.839581 10.096537 -7.243727 2.951622 -0.428265 -2.065140 -6.050091 -4.670484 
